<?xml version="1.0" encoding="utf-8"?>
<!-- Generator: Adobe Illustrator 16.0.0, SVG Export Plug-In . SVG Version: 6.00 Build 0)  -->
<!DOCTYPE svg PUBLIC "-//W3C//DTD SVG 1.1//EN" "http://www.w3.org/Graphics/SVG/1.1/DTD/svg11.dtd">
<svg version="1.1" id="Layer_1" xmlns="http://www.w3.org/2000/svg" xmlns:xlink="http://www.w3.org/1999/xlink" x="0px" y="0px"
	 width="595.28px" height="841.89px" viewBox="0 0 595.28 841.89" enable-background="new 0 0 595.28 841.89" xml:space="preserve">
<g>
	<g>
		<path fill="#00746B" d="M374.438,490.149c50.266-13.943,94.973-32.456,133.446-56.106l-35.691-83.611
			c-41.068,25.051-85.303,44.449-133.794,56.254L374.438,490.149z M293.293,280.66c13.274-5.58,22.433-2.379,27.513,9.521
			c5.56,13.025-0.278,23.131-17.503,30.372l31.934,74.773l13.157-5.282c32.716-13.764,53.846-32.064,63.216-54.907
			c10.375-24.864,9.602-51.251-2.355-79.238c-12.283-28.768-32.497-48.745-60.673-59.822c-28.107-11.107-56.811-10.535-86.018,1.746
			c-16.066,6.764-30.312,16.619-42.656,29.537c-12.366,12.853-21.192,27.069-26.509,42.577c-4.613,13.949-6.349,27.53-4.984,40.824
			c0.622,6.496,2.026,13.589,4.21,21.276c-10.568,1.823-21.469,5.095-32.708,9.825c-29.554,12.446-50.266,33.246-62.105,62.312
			c-11.911,29.087-11.61,58.272,0.922,87.601c12.896,30.156,33.774,50.917,62.744,62.314c28.962,11.392,58.689,10.708,89.293-2.176
			c5.158-2.168,10.664-5.06,16.492-8.737l-33.529-78.444c-4.133,5.903-9.598,10.244-16.224,13.032
			c-8.085,3.406-15.924,3.521-23.528,0.361c-7.539-3.203-13.141-9.003-16.721-17.371c-3.399-7.954-3.399-16.038-0.095-24.284
			c3.297-8.249,8.96-14.057,16.904-17.401c8.786-3.703,17.178-3.484,25.033,0.642c7.943,4.167,14.159,11.586,18.718,22.241
			l32.203,75.36l7.833,18.334l85.237-35.861L283.592,313.64C276.627,297.334,279.876,286.313,293.293,280.66z M38.939,573.078
			c-8.148,0-14.469,2.29-18.969,6.868c-4.499,4.581-6.748,11.008-6.748,19.28v42.74h19.926v-16.002h5.741v-17.727h-5.741v-8.372
			c0-4.661,1.553-6.992,4.662-6.992c1.602,0,2.715,0.509,3.337,1.525c0.621,1.02,0.932,2.839,0.932,5.467v42.101h19.924v-43.432
			c0-8.666-1.88-15.072-5.642-19.226C52.598,575.154,46.792,573.078,38.939,573.078z M98.122,624.832
			c-2.126,0-3.9-0.723-5.324-2.168c-1.424-1.444-2.136-3.233-2.136-5.365c0-2.104,0.672-3.844,2.013-5.221
			c1.342-1.381,3.06-2.068,5.153-2.068c2.454,0,4.481,1.049,6.085,3.151l18.601-0.689c-1.146-6.009-4.057-10.948-8.735-14.82
			c-4.68-3.875-10.078-5.812-16.195-5.812c-7.001,0-13.006,2.462-18.012,7.387c-5.005,4.924-7.508,10.851-7.508,17.775
			c0,7.286,2.478,13.442,7.436,18.466c4.957,5.021,11.033,7.533,18.231,7.533c6.805,0,12.579-2.28,17.324-6.843
			c4.743-4.563,7.378-10.393,7.902-17.482l-18.208,0.688C103.439,623.01,101.23,624.832,98.122,624.832z M160.644,591.889
			c-3.109,0-6.216,1.132-9.324,3.397v-20.533h-18.354v67.214h18.354v-26.688c0-3.055,1.03-4.581,3.092-4.581
			c1.277,0,2.135,0.361,2.576,1.084c0.442,0.723,0.663,2.135,0.663,4.236v25.949h18.354v-31.121c0-5.812-1.382-10.423-4.147-13.836
			S165.354,591.889,160.644,591.889z M211.877,591.789c-7.263,0-13.39,2.48-18.38,7.438c-4.99,4.956-7.484,11.029-7.484,18.218
			c0,7.221,2.47,13.279,7.411,18.169c4.94,4.894,11.042,7.34,18.306,7.34c5.954,0,11.368-1.923,16.244-5.763l-10.452-12.605
			c-1.704,1.838-3.47,2.759-5.302,2.759c-2.257,0-4.081-0.984-5.471-2.956c-1.391-1.971-2.085-4.547-2.085-7.731
			c0-3.053,0.718-5.555,2.159-7.506c1.439-1.956,3.303-2.932,5.594-2.932c3.436,0,5.48,1.82,6.135,5.465h-9.325
			c-0.588,1.575-0.882,3.186-0.882,4.827c0,1.181,0.213,2.476,0.638,3.889h27.827c0.13-1.575,0.195-2.724,0.195-3.446
			c0-7.092-2.412-13.056-7.238-17.898C224.939,594.21,218.976,591.789,211.877,591.789z M246.426,641.967h18.353v-49.093h-18.353
			V641.967z M255.652,570.962c-2.489,0-4.639,0.878-6.455,2.634c-1.815,1.755-2.723,3.832-2.723,6.229
			c0,2.56,0.858,4.662,2.576,6.303c1.718,1.644,3.918,2.464,6.602,2.464c2.681,0,4.882-0.82,6.6-2.464
			c1.718-1.641,2.575-3.743,2.575-6.303c0-2.396-0.906-4.474-2.723-6.229C260.29,571.84,258.138,570.962,255.652,570.962z
			 M330.242,573.078c-3.761,0-7.409,0.773-10.942,2.316c-3.535,1.543-6.479,3.643-8.833,6.302c-2.096,2.397-3.576,4.98-4.444,7.755
			c-0.865,2.775-1.299,6.328-1.299,10.659v41.856h19.924v-43.922c0-3.874,1.557-5.811,4.662-5.811c3.076,0,4.613,1.41,4.613,4.233
			c0,3.087-2.011,4.63-6.034,4.63v17.628l3.042,0.048c7.655,0,13.381-1.885,17.177-5.66c4.156-4.104,6.231-9.457,6.231-16.056
			c0-6.794-2.313-12.489-6.943-17.085C342.766,575.378,337.049,573.078,330.242,573.078z M369.01,598.166
			c-3.861,4.221-5.788,9.873-5.788,16.965v26.836h18.353v-23.291c0-5.12,1.669-7.682,5.007-7.682c1.047,0,2.209,0.361,3.484,1.084
			v-19.696c-2.289-0.36-4.155-0.542-5.595-0.542C378.025,591.84,372.872,593.948,369.01,598.166z M420.293,591.889
			c-7.1,0-13.126,2.479-18.083,7.435c-4.956,4.956-7.437,10.999-7.437,18.121c0,7.321,2.453,13.413,7.361,18.269
			c4.908,4.859,11.042,7.288,18.404,7.288c1.242,0,2.618-0.131,4.123-0.393v-19.061c-1.373,0.858-2.865,1.284-4.466,1.284
			c-1.964,0-3.584-0.657-4.859-1.971s-1.914-2.985-1.914-5.024c0-1.936,0.704-3.606,2.11-5.021c1.408-1.413,3.074-2.119,5.006-2.119
			c2.128,0,3.82,0.774,5.08,2.317c1.259,1.541,1.891,3.609,1.891,6.204v22.748h18.352v-24.08c0-8.041-2.28-14.384-6.844-19.03
			C434.452,594.21,428.213,591.889,420.293,591.889z M506.223,595.729l-6.134-20.976h-23.066l29.004,71.054l29.201-71.054h-22.233
			L506.223,595.729z M570.266,619.364c-1.312,3.646-3.519,5.468-6.625,5.468c-2.128,0-3.902-0.723-5.326-2.168
			c-1.424-1.444-2.135-3.233-2.135-5.365c0-2.104,0.671-3.844,2.013-5.221c1.341-1.381,3.059-2.068,5.154-2.068
			c2.453,0,4.48,1.049,6.083,3.151l18.601-0.689c-1.146-6.009-4.056-10.948-8.734-14.82c-4.68-3.875-10.078-5.812-16.195-5.812
			c-7.002,0-13.006,2.462-18.013,7.387c-5.004,4.924-7.506,10.851-7.506,17.775c0,7.286,2.477,13.442,7.435,18.466
			c4.955,5.021,11.032,7.533,18.229,7.533c6.807,0,12.58-2.28,17.325-6.843c4.744-4.563,7.378-10.393,7.901-17.482L570.266,619.364z
			"/>
	</g>
</g>
</svg>
