<?xml version="1.0" encoding="utf-8"?>
<!-- Generator: Adobe Illustrator 16.0.0, SVG Export Plug-In . SVG Version: 6.00 Build 0)  -->
<!DOCTYPE svg PUBLIC "-//W3C//DTD SVG 1.1//EN" "http://www.w3.org/Graphics/SVG/1.1/DTD/svg11.dtd">
<svg version="1.1" xmlns="http://www.w3.org/2000/svg" xmlns:xlink="http://www.w3.org/1999/xlink" x="0px" y="0px"
	 width="595.28px" height="841.89px" viewBox="0 0 595.28 841.89" enable-background="new 0 0 595.28 841.89" xml:space="preserve">
<g id="Layer_2">
	<g>
		<g>
			<path fill-rule="evenodd" clip-rule="evenodd" fill="#00746B" d="M53.851,480.45c-7.284,0-12.937,2.04-16.958,6.12
				c-4.022,4.081-6.034,9.807-6.034,17.178v38.086h17.814v-14.261h5.133v-15.795h-5.133v-7.459c0-4.154,1.389-6.231,4.168-6.231
				c1.433,0,2.428,0.453,2.983,1.36s0.833,2.53,0.833,4.871v37.515h17.814v-38.699c0-7.723-1.682-13.435-5.046-17.135
				C66.063,482.3,60.871,480.45,53.851,480.45z M106.767,526.564c-1.905,0-3.492-0.644-4.764-1.931
				c-1.27-1.287-1.909-2.881-1.909-4.782c0-1.872,0.6-3.423,1.8-4.651c1.199-1.229,2.734-1.843,4.61-1.843
				c2.19,0,4.003,0.937,5.437,2.809l16.629-0.615c-1.023-5.353-3.627-9.755-7.806-13.206c-4.187-3.452-9.014-5.178-14.479-5.178
				c-6.264,0-11.631,2.194-16.107,6.581c-4.472,4.388-6.713,9.668-6.713,15.841c0,6.493,2.215,11.979,6.647,16.454
				c4.432,4.475,9.865,6.713,16.301,6.713c6.084,0,11.247-2.033,15.492-6.1c4.237-4.066,6.592-9.258,7.064-15.576l-16.283,0.614
				C111.516,524.941,109.542,526.564,106.767,526.564z M162.663,497.211c-2.779,0-5.558,1.01-8.337,3.027v-18.296h-16.41v59.892
				h16.41v-23.781c0-2.721,0.922-4.081,2.765-4.081c1.14,0,1.908,0.322,2.304,0.966c0.394,0.643,0.591,1.901,0.591,3.773v23.123
				h16.41v-27.73c0-5.178-1.235-9.287-3.707-12.329C170.216,498.732,166.874,497.211,162.663,497.211z M208.466,497.123
				c-6.493,0-11.972,2.209-16.431,6.625c-4.461,4.418-6.692,9.829-6.692,16.234c0,6.436,2.208,11.833,6.629,16.191
				c4.414,4.358,9.868,6.538,16.366,6.538c5.319,0,10.16-1.712,14.523-5.134l-9.347-11.232c-1.525,1.638-3.104,2.457-4.741,2.457
				c-2.019,0-3.65-0.878-4.894-2.633c-1.243-1.756-1.86-4.051-1.86-6.889c0-2.721,0.639-4.951,1.927-6.691
				c1.287-1.74,2.954-2.611,5.002-2.611c3.071,0,4.9,1.624,5.488,4.871h-8.34c-0.526,1.404-0.786,2.838-0.786,4.3
				c0,1.053,0.186,2.209,0.566,3.466h24.878c0.118-1.403,0.176-2.428,0.176-3.07c0-6.319-2.157-11.636-6.472-15.95
				S214.814,497.123,208.466,497.123z M247.604,478.563c-2.223,0-4.146,0.783-5.77,2.348c-1.623,1.565-2.436,3.416-2.436,5.551
				c0,2.281,0.768,4.153,2.304,5.616c1.536,1.463,3.504,2.194,5.901,2.194c2.399,0,4.366-0.731,5.901-2.194s2.304-3.335,2.304-5.616
				c0-2.135-0.811-3.985-2.436-5.551C251.75,479.346,249.829,478.563,247.604,478.563z M239.356,541.834h16.41v-43.746h-16.41
				V541.834z M314.295,480.45c-3.364,0-6.627,0.688-9.785,2.062c-3.159,1.375-5.792,3.247-7.897,5.616
				c-1.873,2.136-3.197,4.438-3.972,6.911c-0.776,2.472-1.164,5.639-1.164,9.499v37.296h17.815v-39.139
				c0-3.451,1.388-5.178,4.167-5.178c2.751,0,4.126,1.259,4.126,3.774c0,2.749-1.8,4.124-5.397,4.124v15.707l2.72,0.045
				c6.846,0,11.964-1.682,15.358-5.046c3.714-3.657,5.572-8.425,5.572-14.304c0-6.055-2.07-11.131-6.21-15.227
				C325.49,482.498,320.379,480.45,314.295,480.45z M348.958,502.806c-3.456,3.758-5.178,8.797-5.178,15.115v23.913h16.41V521.08
				c0-4.563,1.491-6.845,4.476-6.845c0.932,0,1.974,0.321,3.114,0.965v-17.551c-2.048-0.322-3.714-0.482-5.002-0.482
				C357.012,497.167,352.404,499.046,348.958,502.806z M394.806,497.211c-6.349,0-11.738,2.208-16.169,6.625
				c-4.433,4.417-6.646,9.8-6.646,16.146c0,6.523,2.192,11.949,6.58,16.279c4.388,4.329,9.873,6.494,16.455,6.494
				c1.111,0,2.34-0.117,3.685-0.352v-16.98c-1.229,0.761-2.56,1.141-3.992,1.141c-1.755,0-3.203-0.585-4.345-1.755
				c-1.14-1.17-1.711-2.662-1.711-4.476c0-1.726,0.63-3.218,1.888-4.476c1.257-1.257,2.749-1.887,4.476-1.887
				c1.901,0,3.414,0.688,4.54,2.063c1.127,1.375,1.69,3.218,1.69,5.528v20.271h16.41v-21.456c0-7.166-2.042-12.819-6.121-16.959
				C407.464,499.28,401.884,497.211,394.806,497.211z M471.631,500.634l-5.484-18.691h-20.624l25.933,63.313l26.106-63.313h-19.876
				L471.631,500.634z M528.891,521.694c-1.175,3.247-3.145,4.87-5.924,4.87c-1.904,0-3.488-0.644-4.762-1.931
				c-1.271-1.287-1.907-2.881-1.907-4.782c0-1.872,0.596-3.423,1.798-4.651c1.195-1.229,2.736-1.843,4.607-1.843
				c2.193,0,4.008,0.937,5.44,2.809l16.63-0.615c-1.027-5.353-3.627-9.755-7.81-13.206c-4.188-3.452-9.013-5.178-14.48-5.178
				c-6.259,0-11.626,2.194-16.102,6.581c-4.476,4.388-6.714,9.668-6.714,15.841c0,6.493,2.216,11.979,6.647,16.454
				c4.432,4.475,9.864,6.713,16.3,6.713c6.081,0,11.248-2.033,15.488-6.1c4.238-4.066,6.597-9.258,7.065-15.576L528.891,521.694z
				 M286.392,79.959c-86.851,0-157.255,70.407-157.255,157.255c0,86.852,70.404,157.256,157.255,157.256
				c86.851,0,157.257-70.404,157.257-157.256C443.648,150.366,373.242,79.959,286.392,79.959z"/>
		</g>
	</g>
</g>
<g id="Layer_1">
	<path fill-rule="evenodd" clip-rule="evenodd" fill="#FFFFFF" d="M308.186,245.425l-16.272-38.277
		c8.776-3.706,11.752-8.88,8.919-15.549c-2.59-6.091-7.254-7.729-14.019-4.872c-6.835,2.892-8.49,8.536-4.94,16.883l40.506,95.291
		l-43.428,18.358l-3.992-9.386l-16.407-38.579c-2.321-5.452-5.488-9.254-9.536-11.386c-4.003-2.109-8.278-2.223-12.753-0.326
		c-4.048,1.711-6.934,4.681-8.611,8.907c-1.685,4.22-1.685,8.358,0.048,12.432c1.824,4.282,4.676,7.251,8.518,8.893
		c3.873,1.616,7.87,1.558,11.986-0.187c3.375-1.425,6.163-3.652,8.267-6.672l17.083,40.158c-2.972,1.883-5.776,3.36-8.405,4.473
		c-15.592,6.596-30.736,6.947-45.49,1.115c-14.76-5.836-25.397-16.465-31.968-31.899c-6.383-15.017-6.538-29.957-0.471-44.846
		c6.034-14.88,16.585-25.529,31.643-31.898c5.725-2.42,11.28-4.097,16.662-5.031c-1.111-3.935-1.827-7.565-2.142-10.891
		c-0.695-6.805,0.186-13.757,2.537-20.898c2.709-7.938,7.207-15.216,13.507-21.796c6.288-6.612,13.547-11.658,21.733-15.119
		c14.878-6.289,29.504-6.582,43.825-0.894c14.352,5.669,24.652,15.896,30.908,30.624c6.093,14.326,6.486,27.834,1.204,40.562
		c-4.776,11.692-15.541,21.063-32.211,28.109L308.186,245.425z M309.797,251.243l18.359,42.725
		c25.609-7.137,48.386-16.614,67.988-28.721l-18.185-42.801C357.037,235.268,334.5,245.199,309.797,251.243L309.797,251.243z"/>
</g>
</svg>
